{
  "asset": {
    "version": "2.0",
    "generator": "generate-viewer-industrial-theme-assets.py"
  },
  "scene": 0,
  "scenes": [
    {
      "nodes": [
        0
      ]
    }
  ],
  "nodes": [
    {
      "mesh": 0,
      "name": "LocationIndustrialV3MeshNode"
    }
  ],
  "meshes": [
    {
      "name": "LocationIndustrialV3Mesh",
      "primitives": [
        {
          "attributes": {
            "POSITION": 0,
            "NORMAL": 1,
            "TEXCOORD_0": 2
          },
          "indices": 3
        }
      ]
    }
  ],
  "buffers": [
    {
      "uri": "location_industrial_v3.bin",
      "byteLength": 126080
    }
  ],
  "bufferViews": [
    {
      "buffer": 0,
      "byteOffset": 0,
      "byteLength": 34932,
      "target": 34962
    },
    {
      "buffer": 0,
      "byteOffset": 34932,
      "byteLength": 34932,
      "target": 34962
    },
    {
      "buffer": 0,
      "byteOffset": 69864,
      "byteLength": 23288,
      "target": 34962
    },
    {
      "buffer": 0,
      "byteOffset": 93152,
      "byteLength": 32928,
      "target": 34963
    }
  ],
  "accessors": [
    {
      "bufferView": 0,
      "componentType": 5126,
      "count": 2911,
      "type": "VEC3",
      "min": [
        -1.16,
        -1.24,
        -1.16
      ],
      "max": [
        1.16,
        1.24,
        1.16
      ]
    },
    {
      "bufferView": 1,
      "componentType": 5126,
      "count": 2911,
      "type": "VEC3"
    },
    {
      "bufferView": 2,
      "componentType": 5126,
      "count": 2911,
      "type": "VEC2"
    },
    {
      "bufferView": 3,
      "componentType": 5123,
      "count": 16464,
      "type": "SCALAR",
      "min": [
        0
      ],
      "max": [
        2910
      ]
    }
  ]
}
