{
  "asset": {
    "version": "2.0",
    "generator": "generate-viewer-industrial-theme-assets.py"
  },
  "scene": 0,
  "scenes": [
    {
      "nodes": [
        0
      ]
    }
  ],
  "nodes": [
    {
      "mesh": 0,
      "name": "PowerPlantIndustrialV3MeshNode"
    }
  ],
  "meshes": [
    {
      "name": "PowerPlantIndustrialV3Mesh",
      "primitives": [
        {
          "attributes": {
            "POSITION": 0,
            "NORMAL": 1,
            "TEXCOORD_0": 2
          },
          "indices": 3
        }
      ]
    }
  ],
  "buffers": [
    {
      "uri": "power_plant_industrial_v3.bin",
      "byteLength": 7488
    }
  ],
  "bufferViews": [
    {
      "buffer": 0,
      "byteOffset": 0,
      "byteLength": 2088,
      "target": 34962
    },
    {
      "buffer": 0,
      "byteOffset": 2088,
      "byteLength": 2088,
      "target": 34962
    },
    {
      "buffer": 0,
      "byteOffset": 4176,
      "byteLength": 1392,
      "target": 34962
    },
    {
      "buffer": 0,
      "byteOffset": 5568,
      "byteLength": 1920,
      "target": 34963
    }
  ],
  "accessors": [
    {
      "bufferView": 0,
      "componentType": 5126,
      "count": 174,
      "type": "VEC3",
      "min": [
        -0.64,
        -0.62,
        -0.6
      ],
      "max": [
        0.64,
        1.94,
        0.6
      ]
    },
    {
      "bufferView": 1,
      "componentType": 5126,
      "count": 174,
      "type": "VEC3"
    },
    {
      "bufferView": 2,
      "componentType": 5126,
      "count": 174,
      "type": "VEC2"
    },
    {
      "bufferView": 3,
      "componentType": 5123,
      "count": 960,
      "type": "SCALAR",
      "min": [
        0
      ],
      "max": [
        173
      ]
    }
  ]
}
