{
  "asset": {
    "version": "2.0",
    "generator": "generate-viewer-industrial-theme-assets.py"
  },
  "scene": 0,
  "scenes": [
    {
      "nodes": [
        0
      ]
    }
  ],
  "nodes": [
    {
      "mesh": 0,
      "name": "PowerStorageIndustrialV3MeshNode"
    }
  ],
  "meshes": [
    {
      "name": "PowerStorageIndustrialV3Mesh",
      "primitives": [
        {
          "attributes": {
            "POSITION": 0,
            "NORMAL": 1,
            "TEXCOORD_0": 2
          },
          "indices": 3
        }
      ]
    }
  ],
  "buffers": [
    {
      "uri": "power_storage_industrial_v3.bin",
      "byteLength": 62000
    }
  ],
  "bufferViews": [
    {
      "buffer": 0,
      "byteOffset": 0,
      "byteLength": 17256,
      "target": 34962
    },
    {
      "buffer": 0,
      "byteOffset": 17256,
      "byteLength": 17256,
      "target": 34962
    },
    {
      "buffer": 0,
      "byteOffset": 34512,
      "byteLength": 11504,
      "target": 34962
    },
    {
      "buffer": 0,
      "byteOffset": 46016,
      "byteLength": 15984,
      "target": 34963
    }
  ],
  "accessors": [
    {
      "bufferView": 0,
      "componentType": 5126,
      "count": 1438,
      "type": "VEC3",
      "min": [
        -0.56,
        -0.8924,
        -0.56
      ],
      "max": [
        0.56,
        0.8924,
        0.56
      ]
    },
    {
      "bufferView": 1,
      "componentType": 5126,
      "count": 1438,
      "type": "VEC3"
    },
    {
      "bufferView": 2,
      "componentType": 5126,
      "count": 1438,
      "type": "VEC2"
    },
    {
      "bufferView": 3,
      "componentType": 5123,
      "count": 7992,
      "type": "SCALAR",
      "min": [
        0
      ],
      "max": [
        1437
      ]
    }
  ]
}
