{
  "asset": {
    "version": "2.0",
    "generator": "generate-viewer-industrial-theme-assets.py"
  },
  "scene": 0,
  "scenes": [
    {
      "nodes": [
        0
      ]
    }
  ],
  "nodes": [
    {
      "mesh": 0,
      "name": "AgentIndustrialV2MeshNode"
    }
  ],
  "meshes": [
    {
      "name": "AgentIndustrialV2Mesh",
      "primitives": [
        {
          "attributes": {
            "POSITION": 0,
            "NORMAL": 1,
            "TEXCOORD_0": 2
          },
          "indices": 3
        }
      ]
    }
  ],
  "buffers": [
    {
      "uri": "agent_industrial_v2.bin",
      "byteLength": 2168
    }
  ],
  "bufferViews": [
    {
      "buffer": 0,
      "byteOffset": 0,
      "byteLength": 624,
      "target": 34962
    },
    {
      "buffer": 0,
      "byteOffset": 624,
      "byteLength": 624,
      "target": 34962
    },
    {
      "buffer": 0,
      "byteOffset": 1248,
      "byteLength": 416,
      "target": 34962
    },
    {
      "buffer": 0,
      "byteOffset": 1664,
      "byteLength": 504,
      "target": 34963
    }
  ],
  "accessors": [
    {
      "bufferView": 0,
      "componentType": 5126,
      "count": 52,
      "type": "VEC3",
      "min": [
        -0.52,
        -0.52,
        -0.52
      ],
      "max": [
        0.52,
        0.8500000000000001,
        0.52
      ]
    },
    {
      "bufferView": 1,
      "componentType": 5126,
      "count": 52,
      "type": "VEC3"
    },
    {
      "bufferView": 2,
      "componentType": 5126,
      "count": 52,
      "type": "VEC2"
    },
    {
      "bufferView": 3,
      "componentType": 5123,
      "count": 252,
      "type": "SCALAR",
      "min": [
        0
      ],
      "max": [
        51
      ]
    }
  ]
}
