{
  "asset": {
    "version": "2.0",
    "generator": "generate-viewer-industrial-theme-assets.py"
  },
  "scene": 0,
  "scenes": [
    {
      "nodes": [
        0
      ]
    }
  ],
  "nodes": [
    {
      "mesh": 0,
      "name": "LocationIndustrialV2MeshNode"
    }
  ],
  "meshes": [
    {
      "name": "LocationIndustrialV2Mesh",
      "primitives": [
        {
          "attributes": {
            "POSITION": 0,
            "NORMAL": 1,
            "TEXCOORD_0": 2
          },
          "indices": 3
        }
      ]
    }
  ],
  "buffers": [
    {
      "uri": "location_industrial_v2.bin",
      "byteLength": 71168
    }
  ],
  "bufferViews": [
    {
      "buffer": 0,
      "byteOffset": 0,
      "byteLength": 19812,
      "target": 34962
    },
    {
      "buffer": 0,
      "byteOffset": 19812,
      "byteLength": 19812,
      "target": 34962
    },
    {
      "buffer": 0,
      "byteOffset": 39624,
      "byteLength": 13208,
      "target": 34962
    },
    {
      "buffer": 0,
      "byteOffset": 52832,
      "byteLength": 18336,
      "target": 34963
    }
  ],
  "accessors": [
    {
      "bufferView": 0,
      "componentType": 5126,
      "count": 1651,
      "type": "VEC3",
      "min": [
        -1.13,
        -1.18,
        -1.13
      ],
      "max": [
        1.13,
        1.18,
        1.13
      ]
    },
    {
      "bufferView": 1,
      "componentType": 5126,
      "count": 1651,
      "type": "VEC3"
    },
    {
      "bufferView": 2,
      "componentType": 5126,
      "count": 1651,
      "type": "VEC2"
    },
    {
      "bufferView": 3,
      "componentType": 5123,
      "count": 9168,
      "type": "SCALAR",
      "min": [
        0
      ],
      "max": [
        1650
      ]
    }
  ]
}
