{
  "asset": {
    "version": "2.0",
    "generator": "generate-viewer-industrial-theme-assets.py"
  },
  "scene": 0,
  "scenes": [
    {
      "nodes": [
        0
      ]
    }
  ],
  "nodes": [
    {
      "mesh": 0,
      "name": "PowerPlantIndustrialMeshNode"
    }
  ],
  "meshes": [
    {
      "name": "PowerPlantIndustrialMesh",
      "primitives": [
        {
          "attributes": {
            "POSITION": 0,
            "NORMAL": 1,
            "TEXCOORD_0": 2
          },
          "indices": 3
        }
      ]
    }
  ],
  "buffers": [
    {
      "uri": "power_plant_industrial.bin",
      "byteLength": 1536
    }
  ],
  "bufferViews": [
    {
      "buffer": 0,
      "byteOffset": 0,
      "byteLength": 432,
      "target": 34962
    },
    {
      "buffer": 0,
      "byteOffset": 432,
      "byteLength": 432,
      "target": 34962
    },
    {
      "buffer": 0,
      "byteOffset": 864,
      "byteLength": 288,
      "target": 34962
    },
    {
      "buffer": 0,
      "byteOffset": 1152,
      "byteLength": 384,
      "target": 34963
    }
  ],
  "accessors": [
    {
      "bufferView": 0,
      "componentType": 5126,
      "count": 36,
      "type": "VEC3",
      "min": [
        -0.56,
        -0.61,
        -0.56
      ],
      "max": [
        0.56,
        1.1,
        0.56
      ]
    },
    {
      "bufferView": 1,
      "componentType": 5126,
      "count": 36,
      "type": "VEC3"
    },
    {
      "bufferView": 2,
      "componentType": 5126,
      "count": 36,
      "type": "VEC2"
    },
    {
      "bufferView": 3,
      "componentType": 5123,
      "count": 192,
      "type": "SCALAR",
      "min": [
        0
      ],
      "max": [
        35
      ]
    }
  ]
}
