{
  "asset": {
    "version": "2.0",
    "generator": "generate-viewer-industrial-theme-assets.py"
  },
  "scene": 0,
  "scenes": [
    {
      "nodes": [
        0
      ]
    }
  ],
  "nodes": [
    {
      "mesh": 0,
      "name": "PowerStorageIndustrialMeshNode"
    }
  ],
  "meshes": [
    {
      "name": "PowerStorageIndustrialMesh",
      "primitives": [
        {
          "attributes": {
            "POSITION": 0,
            "NORMAL": 1,
            "TEXCOORD_0": 2
          },
          "indices": 3
        }
      ]
    }
  ],
  "buffers": [
    {
      "uri": "power_storage_industrial.bin",
      "byteLength": 17456
    }
  ],
  "bufferViews": [
    {
      "buffer": 0,
      "byteOffset": 0,
      "byteLength": 4944,
      "target": 34962
    },
    {
      "buffer": 0,
      "byteOffset": 4944,
      "byteLength": 4944,
      "target": 34962
    },
    {
      "buffer": 0,
      "byteOffset": 9888,
      "byteLength": 3296,
      "target": 34962
    },
    {
      "buffer": 0,
      "byteOffset": 13184,
      "byteLength": 4272,
      "target": 34963
    }
  ],
  "accessors": [
    {
      "bufferView": 0,
      "componentType": 5126,
      "count": 412,
      "type": "VEC3",
      "min": [
        -0.46,
        -0.8392000000000001,
        -0.45301156638561574
      ],
      "max": [
        0.46,
        0.8392000000000001,
        0.4530115663856157
      ]
    },
    {
      "bufferView": 1,
      "componentType": 5126,
      "count": 412,
      "type": "VEC3"
    },
    {
      "bufferView": 2,
      "componentType": 5126,
      "count": 412,
      "type": "VEC2"
    },
    {
      "bufferView": 3,
      "componentType": 5123,
      "count": 2136,
      "type": "SCALAR",
      "min": [
        0
      ],
      "max": [
        411
      ]
    }
  ]
}
