{
  "asset": {
    "version": "2.0",
    "generator": "generate-viewer-industrial-theme-assets.py"
  },
  "scene": 0,
  "scenes": [
    {
      "nodes": [
        0
      ]
    }
  ],
  "nodes": [
    {
      "mesh": 0,
      "name": "PowerStorageIndustrialV2MeshNode"
    }
  ],
  "meshes": [
    {
      "name": "PowerStorageIndustrialV2Mesh",
      "primitives": [
        {
          "attributes": {
            "POSITION": 0,
            "NORMAL": 1,
            "TEXCOORD_0": 2
          },
          "indices": 3
        }
      ]
    }
  ],
  "buffers": [
    {
      "uri": "power_storage_industrial_v2.bin",
      "byteLength": 39648
    }
  ],
  "bufferViews": [
    {
      "buffer": 0,
      "byteOffset": 0,
      "byteLength": 11088,
      "target": 34962
    },
    {
      "buffer": 0,
      "byteOffset": 11088,
      "byteLength": 11088,
      "target": 34962
    },
    {
      "buffer": 0,
      "byteOffset": 22176,
      "byteLength": 7392,
      "target": 34962
    },
    {
      "buffer": 0,
      "byteOffset": 29568,
      "byteLength": 10080,
      "target": 34963
    }
  ],
  "accessors": [
    {
      "bufferView": 0,
      "componentType": 5126,
      "count": 924,
      "type": "VEC3",
      "min": [
        -0.53,
        -0.8636,
        -0.53
      ],
      "max": [
        0.53,
        0.8636,
        0.53
      ]
    },
    {
      "bufferView": 1,
      "componentType": 5126,
      "count": 924,
      "type": "VEC3"
    },
    {
      "bufferView": 2,
      "componentType": 5126,
      "count": 924,
      "type": "VEC2"
    },
    {
      "bufferView": 3,
      "componentType": 5123,
      "count": 5040,
      "type": "SCALAR",
      "min": [
        0
      ],
      "max": [
        923
      ]
    }
  ]
}
