{
  "asset": {
    "version": "2.0",
    "generator": "generate-viewer-industrial-theme-assets.py"
  },
  "scene": 0,
  "scenes": [
    {
      "nodes": [
        0
      ]
    }
  ],
  "nodes": [
    {
      "mesh": 0,
      "name": "AgentIndustrialV3MeshNode"
    }
  ],
  "meshes": [
    {
      "name": "AgentIndustrialV3Mesh",
      "primitives": [
        {
          "attributes": {
            "POSITION": 0,
            "NORMAL": 1,
            "TEXCOORD_0": 2
          },
          "indices": 3
        }
      ]
    }
  ],
  "buffers": [
    {
      "uri": "agent_industrial_v3.bin",
      "byteLength": 15304
    }
  ],
  "bufferViews": [
    {
      "buffer": 0,
      "byteOffset": 0,
      "byteLength": 4308,
      "target": 34962
    },
    {
      "buffer": 0,
      "byteOffset": 4308,
      "byteLength": 4308,
      "target": 34962
    },
    {
      "buffer": 0,
      "byteOffset": 8616,
      "byteLength": 2872,
      "target": 34962
    },
    {
      "buffer": 0,
      "byteOffset": 11488,
      "byteLength": 3816,
      "target": 34963
    }
  ],
  "accessors": [
    {
      "bufferView": 0,
      "componentType": 5126,
      "count": 359,
      "type": "VEC3",
      "min": [
        -0.4,
        -0.4,
        -0.3939231012048833
      ],
      "max": [
        0.4,
        1.01,
        0.3939231012048832
      ]
    },
    {
      "bufferView": 1,
      "componentType": 5126,
      "count": 359,
      "type": "VEC3"
    },
    {
      "bufferView": 2,
      "componentType": 5126,
      "count": 359,
      "type": "VEC2"
    },
    {
      "bufferView": 3,
      "componentType": 5123,
      "count": 1908,
      "type": "SCALAR",
      "min": [
        0
      ],
      "max": [
        358
      ]
    }
  ]
}
